<?xml version="1.0" encoding="UTF-8"?>
<svg id="Calque_2" data-name="Calque 2" xmlns="http://www.w3.org/2000/svg" viewBox="0 0 910.6 602.59">
  <defs>
    <style>
      .cls-1 {
        fill: #141414;
      }

      .cls-2 {
        fill: #fff;
      }
    </style>
  </defs>
  <g id="Calque_1-2" data-name="Calque 1">
    <g>
      <g>
        <path class="cls-2" d="M904.52,406.74c-5.74,55.27-5.82,118.18-43.97,162.93-37.61,41.41-104.24,39.53-152.13,17.59-43.07-20.84-72.97-60.23-100.54-97.77-16.67-22.33-33.27-44.8-51.48-65.92-14.56-15.78-17.19,3.43-17.29,16.84-.73,14.03-1.34,28.21-3.04,42.08-3.71,25.75-9.29,53.35-26.9,73.47-30.6,33.38-83.01,31.19-123.4,19.37-42.64-12.3-72.01-46.62-95.91-81.81-12.88-18.52-25.78-37.55-38.5-56.25-8.39-10.48-27.44-53.4-31.6-17.25-8.17,48.42-9.35,110.35-56.11,139.03-35.39,18.96-86.68,18.58-119.8-5.12C2.92,523.56,5.43,467.38,1.41,421.81c-3.52-84.3-.58-169.25,10.09-252.88C22.66,73.04,48.61-15.67,166.96,2.34c48.49,8.98,78.38,51.68,100.43,91.92,26.16,45.69,47.79,93.47,72.14,140.04,29.47,60.17,16.39-17.21,16.6-37.67.41-34.95-.38-71.64,6.64-105.77,20.76-84.96,113.7-110.74,187.23-72.51,31.3,17,51.92,47.04,69.45,76.92,9.46,15.63,19.28,32.25,28.68,48.29,5.29,6.87,19.24,39.41,27.82,23.68,6.18-17.99,7.01-38.2,12.6-56.46,10.5-40.3,31.7-82.82,72.5-99.63,42.44-16.86,98.62-6.33,122.84,34.59,21.73,38.04,21.69,83.63,24.92,126.09,3.21,78.07,2.23,156.72-4.3,234.76v.14Z"/>
        <circle class="cls-1" cx="686.37" cy="276.25" r="17.35"/>
        <circle class="cls-1" cx="736.19" cy="274.42" r="17.35"/>
      </g>
      <path class="cls-1" d="M761.28,280.45c.14.08.29.15.44.21-.05-.02-.09-.04-.14-.06-.1-.05-.2-.1-.3-.15Z"/>
      <path class="cls-1" d="M763.63,281.28c.41.08.83.13,1.24.15-.19,0-.38-.02-.56-.03l-.46-.07h0c-.07,0-.16-.02-.23-.04-.12-.02-.24-.05-.36-.09.12.03.23.05.36.08h.02Z"/>
      <path class="cls-1" d="M761.28,280.45c.14.08.29.15.44.21-.05-.02-.09-.04-.14-.06-.1-.05-.21-.1-.32-.16h.02Z"/>
      <path class="cls-1" d="M763.63,281.28c.41.08.83.13,1.24.15-.19,0-.38-.02-.56-.03l-.46-.07-.23-.05Z"/>
    </g>
  </g>
</svg>