<?xml version="1.0" encoding="UTF-8"?>
<svg id="Calque_2" data-name="Calque 2" xmlns="http://www.w3.org/2000/svg" xmlns:xlink="http://www.w3.org/1999/xlink" viewBox="0 0 1100.41 728.19">
  <defs>
    <style>
      .cls-1 {
        fill: url(#Dégradé_sans_nom_198);
      }

      .cls-2 {
        fill: #141414;
      }
    </style>
    <linearGradient id="Dégradé_sans_nom_198" data-name="Dégradé sans nom 198" x1="541.93" y1="-108.16" x2="541.93" y2="596.65" gradientTransform="translate(16.1 100.45) rotate(1.72) scale(1 .99) skewX(.02)" gradientUnits="userSpaceOnUse">
      <stop offset=".35" stop-color="#fb5089"/>
      <stop offset="1" stop-color="#dc2e61"/>
    </linearGradient>
  </defs>
  <g id="Calque_1-2" data-name="Calque 1">
    <g>
      <g>
        <path class="cls-1" d="M1093.05,491.52c-6.93,66.79-7.03,142.81-53.13,196.89-45.44,50.04-125.97,47.77-183.83,21.25-52.04-25.18-88.18-72.78-121.49-118.15-20.15-26.98-40.21-54.14-62.21-79.66-17.6-19.07-20.78,4.14-20.9,20.35-.88,16.96-1.62,34.1-3.67,50.85-4.48,31.12-11.23,64.47-32.51,88.78-36.98,40.33-100.31,37.69-149.12,23.41-51.53-14.87-87.02-56.34-115.9-98.87-15.56-22.38-31.16-45.38-46.53-67.97-10.14-12.67-33.16-64.53-38.19-20.84-9.87,58.51-11.3,133.35-67.81,168.01-42.77,22.91-104.74,22.46-144.77-6.19C3.53,632.69,6.56,564.79,1.71,509.73c-4.25-101.87-.7-204.53,12.2-305.59C27.38,88.27,58.74-18.93,201.77,2.83c58.6,10.85,94.71,62.46,121.36,111.08,31.61,55.22,57.75,112.95,87.18,169.23,35.61,72.72,19.8-20.79,20.06-45.52.5-42.23-.46-86.57,8.02-127.81C463.48,7.15,575.79-24,664.65,22.2c37.83,20.54,62.75,56.84,83.93,92.96,11.43,18.89,23.3,38.97,34.66,58.35,6.39,8.3,23.24,47.62,33.62,28.62,7.46-21.74,8.47-46.16,15.23-68.22,12.69-48.7,38.31-100.08,87.62-120.4,51.29-20.38,119.18-7.65,148.45,41.8,26.26,45.97,26.22,101.06,30.12,152.37,3.88,94.34,2.69,189.38-5.19,283.7l-.02.17Z"/>
        <circle class="cls-2" cx="829.44" cy="333.83" r="20.97"/>
        <circle class="cls-2" cx="889.64" cy="331.62" r="20.97"/>
      </g>
      <path class="cls-2" d="M919.96,338.91c.17.1.35.18.53.26-.06-.02-.11-.04-.17-.07-.12-.05-.24-.12-.36-.18Z"/>
      <path class="cls-2" d="M922.8,339.91c.49.1,1,.16,1.5.19-.22,0-.46-.02-.67-.04l-.55-.09h-.01c-.09,0-.19-.03-.28-.05-.15-.03-.29-.06-.44-.11.15.04.28.07.43.1h.02Z"/>
      <path class="cls-2" d="M919.96,338.91c.17.1.35.18.53.26-.06-.02-.11-.04-.17-.07-.12-.05-.25-.12-.38-.19h.02Z"/>
      <path class="cls-2" d="M922.8,339.91c.49.1,1,.16,1.5.19-.22,0-.46-.02-.67-.04l-.55-.09-.27-.05Z"/>
    </g>
  </g>
</svg>