<?xml version="1.0" encoding="UTF-8"?>
<svg id="Calque_2" data-name="Calque 2" xmlns="http://www.w3.org/2000/svg" viewBox="0 0 1463.55 333.86">
  <defs>
    <style>
      .cls-1 {
        fill: #141414;
      }

      .cls-2 {
        fill: #fff;
      }
    </style>
  </defs>
  <g id="Calque_1-2" data-name="Calque 1">
    <g>
      <path class="cls-1" d="M1462.43,97.65c-1.88-24.09-1.92-49.95-14.29-71.51-13.8-23.19-45.69-29.09-69.75-19.47-23.12,9.59-35.1,33.74-41.01,56.62-3.15,10.36-3.6,21.83-7.08,32.05-4.85,8.93-12.8-9.51-15.81-13.41-5.36-9.08-10.95-18.5-16.34-27.36-9.98-16.93-21.72-33.95-39.5-43.56-41.77-21.6-94.47-6.86-106.15,41.37-3.94,19.38-3.44,40.19-3.63,60.02-.1,11.61,7.42,55.5-9.38,21.4-13.87-26.4-26.2-53.48-41.1-79.37-12.56-22.81-29.57-47-57.1-52.04-52.97-7.94-73.26,21.69-82.52,61.27-22.34-28.25-53.79-49.4-89.88-57.42-58.2-13.11-110.96,7.97-145.83,46.22-10.32-30.01-31.15-50.25-75.72-44.96-27.67,4.18-45.4,27.71-58.64,49.99-15.68,25.28-28.82,51.82-43.49,77.63-17.81,33.39-8.98-10-8.72-21.53.41-19.71,1.53-40.38-1.82-59.74-10.22-48.27-62.45-64.48-104.85-44.27-18.07,9.02-30.31,25.57-40.8,42.1-5.65,8.64-11.53,17.83-17.15,26.7l-50.91,77.07c1.6-20.01,2.49-40.08,2.74-60.11-.88-25.95,2.27-57.7-19.99-76.15-9.36-7.51-21.69-11.59-34.26-12.43-.23-.02-.46-.04-.69-.05h-.19c-.23-.04-.45-.06-.68-.08-12.54-1.34-25.38.56-35.9,6.35-12.31,7.04-19.16,18.29-23.56,30.94-1.56-11.93-7.71-23.38-18.64-31.16-3.85-2.74-8.17-4.73-12.65-6.23-45.4-15.15-110.07-3.14-140.08,27.68-34.78,35.79-31.23,88.56-1.76,126.15,10.35,14.84,26.28,33.05,25.29,49.42-.19,11.11-11.44,14.37-24.05,18.16-41.45,11.08-50.16,66.97-13.02,89.31,5.37,3.41,11.33,5.84,17.6,7.03,35.57,6.91,73.25,7.43,105.96-6.94,19.2-8.04,32.57-20.34,40.82-34.83,2.2,13.01,7.02,25.08,17.8,34.01,9.18,7.36,21.21,11.42,33.54,12.37h0c.47.04.94.07,1.41.1l.18.02c.47.05.95.1,1.42.14h.01c2.15.21,4.29.32,6.44.33.15.01.31.01.46.01h61.39c5.42-.25,10.46-1.23,14.89-3.08,24.81-10.97,46.57-31.66,62.89-52.32,9.87-12.29,19.69-24.65,30.41-36.23,8.54-8.63,9.68,2.25,9.49,9.81.16,7.92.25,15.93.95,23.77,1.63,14.58,4.29,30.24,13.91,41.9,16.74,19.37,46.5,19.09,69.63,13.16,24.4-6.17,41.69-24.98,55.89-44.38,7.64-10.2,15.31-20.7,22.86-31.01,4.96-5.75,16.55-29.6,18.24-9.15,3.74,27.44,3.28,62.37,29.27,79.39,19.72,11.33,48.82,12.04,68.03-.71,13.05-8.99,18.82-22.6,21.87-37.29,23.01,23.16,52.85,39.56,86.41,44.42,54.86,8.07,102.96-12.66,135.53-47.96,2.4,16.13,7.55,31.4,21.29,41.54,18.82,13.41,47.92,13.56,67.98,2.76,26.5-16.34,27.09-57.33,31.67-84.81,2.31-20.51,13.17,3.81,17.95,9.75,7.24,10.59,14.59,21.38,21.92,31.87,13.6,19.94,30.3,39.37,54.51,46.3,22.94,6.66,52.68,7.83,70-11.14,9.96-11.44,13.1-27.1,15.17-41.72.94-7.87,1.28-15.91,1.67-23.88.04-7.61,1.51-18.51,9.79-9.57,10.36,11.96,10.79,15.47,23.3,29.71,17.43,19.87,38.92,42.86,63.38,54.63,27.2,12.39,65.01,13.37,86.3-10.17,21.58-25.44,21.55-61.13,24.74-92.5l-.22,8.28c3.61-44.29,4.07-88.92,2.15-133.21ZM199.21,84.55c-4.16,25.72-7.25,51.67-9.15,77.7-1.13,11.21-2.03,22.44-2.72,33.68-3.52-7.17-7.85-14.03-12.91-20.37-13.51-19.55-41.44-45.34-36.77-67.41,3.21-13.9,23.58-10.43,38.43-14.64,10.99-3.06,19.29-9.4,24.77-17.37-.54,2.86-1.08,5.67-1.65,8.41ZM902.88,185.41c-5.78,27.72-28.99,52.01-58.4,55.47l-.2.02c-37.69,5.12-69.42-26.23-74.51-61.86-6.96-36.94,15.13-79.43,54.37-86.93,54.04-10.03,90.16,45.66,78.74,93.3ZM1336.68,168.54c-5.43.14-9.96-4.14-10.11-9.58-.14-5.43,4.14-9.96,9.58-10.11,5.43-.14,9.96,4.14,10.11,9.58.14,5.43-4.14,9.96-9.58,10.11ZM1364.95,167.77c-5.43.15-9.96-4.14-10.1-9.58-.15-5.43,4.14-9.96,9.57-10.1,5.44-.15,9.96,4.14,10.11,9.57.15,5.44-4.14,9.96-9.58,10.11Z"/>
      <path class="cls-2" d="M1374.53,157.66c.15,5.44-4.14,9.96-9.58,10.11-5.43.15-9.96-4.14-10.1-9.58-.15-5.43,4.14-9.96,9.57-10.1,5.44-.15,9.96,4.14,10.11,9.57Z"/>
      <path class="cls-2" d="M1346.26,158.43c.14,5.43-4.14,9.96-9.58,10.11-5.43.14-9.96-4.14-10.11-9.58-.14-5.43,4.14-9.96,9.58-10.11,5.43-.14,9.96,4.14,10.11,9.58Z"/>
    </g>
  </g>
</svg>