<?xml version="1.0" encoding="UTF-8"?>
<svg id="Calque_2" data-name="Calque 2" xmlns="http://www.w3.org/2000/svg" xmlns:xlink="http://www.w3.org/1999/xlink" viewBox="0 0 1456.64 340.29">
  <defs>
    <style>
      .cls-1 {
        fill: url(#Dégradé_sans_nom_198);
      }

      .cls-2 {
        fill: #141414;
      }

      .cls-3 {
        fill: url(#Dégradé_sans_nom_198-2);
      }

      .cls-4 {
        fill: url(#Dégradé_sans_nom_198-5);
      }

      .cls-5 {
        fill: url(#Dégradé_sans_nom_198-3);
      }

      .cls-6 {
        fill: url(#Dégradé_sans_nom_198-4);
      }
    </style>
    <linearGradient id="Dégradé_sans_nom_198" data-name="Dégradé sans nom 198" x1="488.56" y1="26.79" x2="488.56" y2="325.41" gradientUnits="userSpaceOnUse">
      <stop offset=".35" stop-color="#fb5089"/>
      <stop offset="1" stop-color="#dc2e61"/>
    </linearGradient>
    <linearGradient id="Dégradé_sans_nom_198-2" data-name="Dégradé sans nom 198" x1="213.65" y1="16.55" x2="213.65" y2="326.98" xlink:href="#Dégradé_sans_nom_198"/>
    <linearGradient id="Dégradé_sans_nom_198-3" data-name="Dégradé sans nom 198" x1="83.12" y1="16.63" x2="83.12" y2="328.68" xlink:href="#Dégradé_sans_nom_198"/>
    <linearGradient id="Dégradé_sans_nom_198-4" data-name="Dégradé sans nom 198" x1="1243.91" y1="59.18" x2="1243.91" y2="370.45" gradientTransform="translate(-45.65 -34.86) scale(1 .99)" xlink:href="#Dégradé_sans_nom_198"/>
    <linearGradient id="Dégradé_sans_nom_198-5" data-name="Dégradé sans nom 198" x1="830.11" y1="14.29" x2="830.11" y2="329.36" xlink:href="#Dégradé_sans_nom_198"/>
  </defs>
  <g id="Calque_1-2" data-name="Calque 1">
    <g>
      <path class="cls-1" d="M370.93,327.31c-15.89,11.61-42.42,10.42-63.01,8.79-15.34-1.49-30.39-6.45-32.7-24.1-4.19-66.97-.34-173.46-1.6-244.35.13-12.26-.41-26.23,2.89-37.22,9.18-28.98,62.09-17.37,85.22-16.67,29.5,2.75,57.73-3.11,87.42-3.66,20.74-.62,41.53,4.74,61.01,7.04,16.9,2.1,33.63.78,50.51-1.86,32.95-5.91,69.08-9.99,98.4,9.6,52.75,35.73,43.84,101.53,44.77,163.68-.04,29.39.07,59.64-.05,88.77-.52,20.22-.2,33.01-7.16,44.5-11.23,16.31-37.98,15.31-56.72,14.95-26.85-1.41-43.99-9.34-46.54-38.78-2.2-21.69-1.08-45.62-1.36-67.79-1.13-33.83,3.38-70.28-15.52-90.51-7.63-6.59-15.99-5.05-22.02,4.01-14.81,25-8.85,78.82-10.13,111.53-1.22,42.69,6.59,78.71-44.88,81.36-18.78.71-42.92,1.36-56.19-13.6-12.56-16.55-9.36-44.13-10.14-64.99-1.22-37.42,4.11-80.25-8.84-109.26-4.31-8.97-13.88-17.07-23.25-11.06-16.91,13.05-15.38,46.18-16.15,71.36-.1,20.4.04,42.82-.08,62.48-.83,22.41.94,42.84-13.72,55.67l-.14.11Z"/>
      <path class="cls-3" d="M163.71,326.84c-22.09-12.06-15.73-33.84-14.53-57,3.62-39.86,7.32-80.27,11.37-124.81,2.81-30.79,5.51-60.88,8.17-89.37,1.46-12.7,1.98-24.13,7.96-34.27,12.54-20.57,57.31-16.28,79.64-8.44,23.64,8.23,24.44,24.88,23.23,43.6-5.74,66.97-15.4,172.33-21.76,239.16-1.32,10.4-2.78,21.01-9.14,28.76-14.98,18.21-64.41,13.14-84.81,2.44l-.13-.07Z"/>
      <path class="cls-5" d="M129.87,320.34c-27.29,19.07-64.75,20.7-96.11,15.91-6.76-1.02-13.9-2.45-19.78-5.55-10.07-5.01-12.4-16.23-13.22-26.61-.97-14.91-1.25-31.85.61-45.56,2.85-20.55,17.73-13.42,32.5-16.52,10.56-1.78,18.62-9.45,17.88-20.57-.53-16.46-14.82-33.06-24.35-46.85-5.72-8.17-10.96-16.51-14.98-25.72C-1.61,117.23-.03,77.3,18.59,48.34,41.09,13.17,85.79,3.29,125.13,7.3c11.51,1.22,21.68,1.73,30.48,7.7,7.29,5.23,9.04,14.7,9.85,23.3,1.05,11.94,1.05,27.75-.02,38.91-1.86,22.93-12.62,17.07-30.21,16.41-12.44-.8-28.27,4.28-29.73,18.49-2.11,22.01,22.14,44.97,34.17,62.57,7.88,10.78,14.68,22.16,19.21,34.78,14.02,38.29,6.77,87.41-28.84,110.78l-.17.11Z"/>
      <g>
        <path class="cls-6" d="M1455.37,226.86c-2.24,31.45-1.14,67.13-21.95,93.2-20.57,24.17-58.39,24.32-85.95,12.76-24.8-11.03-42.48-32.82-58.8-53.61-9.86-12.36-19.69-24.8-30.4-36.44-8.55-8.68-9.69,2.26-9.5,9.87-.16,7.97-.24,16.03-.95,23.92-1.63,14.67-4.29,30.42-13.91,42.15-16.74,19.49-46.5,19.21-69.63,13.24-24.41-6.2-41.69-25.12-55.89-44.64-7.64-10.27-15.31-20.82-22.86-31.19-4.95-5.79-16.54-29.78-18.24-9.2-3.74,27.61-3.28,62.75-29.28,79.87-19.72,11.4-48.81,12.12-68.03-.71-23.77-16.46-23.37-48.37-26.48-74.14-3.54-47.74-3.43-95.97,1.09-143.59,4.57-54.58,17.66-105.36,85.11-97.32,27.66,4.21,45.39,27.88,58.63,50.29,15.67,25.43,28.81,52.13,43.48,78.1,17.81,33.59,8.98-10.06,8.72-21.67-.41-19.83-1.53-40.62,1.83-60.1,10.22-48.56,62.45-64.88,104.85-44.55,18.06,9.07,30.31,25.72,40.8,42.35,5.65,8.69,11.52,17.94,17.15,26.86,3.13,3.8,11.63,22,16.21,12.92,3.17-10.32,3.28-21.79,6.11-32.25,5.22-23.05,16.46-47.55,39.29-57.83,23.76-10.34,55.81-5.4,70.3,17.37,13.02,21.18,13.83,47.03,16.44,71.05,3.25,44.21,4.13,88.83,1.86,133.21v.08Z"/>
        <circle class="cls-2" cx="1329.27" cy="156.85" r="9.84"/>
        <circle class="cls-2" cx="1357.49" cy="154.9" r="9.84"/>
      </g>
      <path class="cls-4" d="M673.68,187.66c-12.15-107.22,77.8-206.3,187.42-180.53,60.88,14.12,108.67,66.64,121.99,127.69,25.55,108.54-59.44,221.38-174.59,203.59-72.79-11.09-128.24-77.98-134.79-150.53l-.02-.22ZM837.42,248.93c29.4-3.47,52.55-28.44,58.24-56.99,11.28-49.08-25.03-106.59-79.05-96.43-39.23,7.62-61.2,51.35-54.11,89.45,5.2,36.74,37.04,69.16,74.72,64l.2-.02Z"/>
    </g>
  </g>
</svg>